<?xml version="1.0" encoding="UTF-8"?><svg id="Layer_1" xmlns="http://www.w3.org/2000/svg" viewBox="0 0 4690.04 752"><defs><style>.cls-1{fill:#fff;}</style></defs><g><path class="cls-1" d="m0,0v376c0,155.2,94.03,288.43,228.23,345.84l29.28-134.86.96-4.5c-13.93-1.75-27.07-4.5-39.35-8.33-22.62-7.05-41.39-17.74-56.33-32.06-14.94-14.32-25.32-31.95-31.12-52.91-5.82-20.95-6.44-45.33-1.87-73.14,2.9-17.01,6.54-35.27,10.89-54.78,4.36-19.5,8.61-38.17,12.76-56.02,9.12-36.1,24.76-80.4,43.85-105.51,19.08-25.1,43.26-44.19,72.52-57.27,29.26-13.07,63.8-19.61,103.64-19.61,26.55,0,51.25,3.33,74.07,9.96,22.82,6.64,42.22,16.5,58.2,29.57,15.97,13.07,27.59,28.85,34.86,47.31,7.26,18.47,8.61,39.53,4.05,63.18-.84,3.74-2.6,6.85-5.29,9.34-2.7,2.49-5.91,3.73-9.65,3.73h-84.66c-5.4,0-9.44-1.14-12.14-3.42-2.7-2.28-4.46-6.54-5.29-12.76.41-21.57-5.19-36.51-16.81-44.82-11.62-8.3-26.98-12.45-46.06-12.45-22.83,0-42.54,6.33-59.13,18.99-16.6,12.66-29.95,47.42-37,76.88-8.71,34.03-16.18,68.89-22.41,104.57-5.4,29.47-2.91,50.53,7.47,63.18,5.97,7.29,14.01,12.46,24.1,15.55l1.67-7.86,35.34-166.47c.83-4.56,3.11-8.3,6.85-11.2,3.73-2.9,7.67-4.36,11.83-4.36h165.58c25.31,0,48.24,2.91,68.78,8.72,20.54,5.82,37.66,14.73,51.35,26.77,13.69,12.04,23.24,27.08,28.63,45.13,5.39,18.05,5.6,39.12.62,63.18-10.38,47.73-31.43,83-63.18,105.82-31.75,22.83-74.38,34.24-127.92,34.24h-84.16s-1.08,5.6-1.08,5.6l-34.22,158.87c12.54,1.26,25.26,1.91,38.13,1.91,207.66,0,376-168.34,376-376V0H0Z"/><path class="cls-1" d="m506.81,486.02c13.48-9.12,22.3-23.03,26.45-41.7,2.07-10.79,2.49-20.33,1.24-28.63-1.24-8.3-5.5-14.94-12.76-19.92-7.26-4.98-18.36-7.47-33.3-7.47h-74.7l-22.84,104.84-1.26,6.58h71.41c17.01,0,32.26-4.56,45.75-13.69Z"/></g><g><path class="cls-1" d="m1019.4,568.04c-18.14,0-34.27-2.34-48.4-7-14.14-4.66-25.74-11.66-34.8-21-9.07-9.33-15.34-20.73-18.8-34.2-3.47-13.46-3.74-28.86-.8-46.2,1.86-10.93,4.2-22.66,7-35.2,2.8-12.53,5.53-24.53,8.2-36,5.86-22.93,14.73-42.46,26.6-58.6,11.86-16.13,27.06-28.46,45.6-37,18.53-8.53,40.46-12.8,65.8-12.8,17.33,0,33.13,2.2,47.4,6.6,14.26,4.4,26.26,10.8,36,19.2,9.73,8.4,16.66,18.4,20.8,30,4.13,11.6,4.86,24.6,2.2,39-.27,2.4-1.27,4.4-3,6-1.74,1.6-3.8,2.4-6.2,2.4h-46.4c-3.2,0-5.67-.8-7.4-2.4-1.74-1.6-2.74-4.26-3-8,.8-15.2-3-25.86-11.4-32-8.4-6.13-19.54-9.2-33.4-9.2-16.54,0-30.8,4.54-42.8,13.6-12,9.07-20.54,24.14-25.6,45.2-5.6,21.87-10.4,44.27-14.4,67.2-3.74,21.07-1.87,36.14,5.6,45.2,7.46,9.07,19.33,13.6,35.6,13.6,13.86,0,26.33-3,37.4-9,11.06-6,20.06-16.73,27-32.2,2.13-4,4.2-6.73,6.2-8.2,2-1.46,4.6-2.2,7.8-2.2h46c2.4,0,4.33.8,5.8,2.4,1.46,1.6,1.93,3.6,1.4,6-3.74,13.87-9.34,26.6-16.8,38.2-7.47,11.6-16.87,21.67-28.2,30.2-11.34,8.54-24.54,15.07-39.6,19.6-15.07,4.53-32.2,6.8-51.4,6.8Z"/><path class="cls-1" d="m1185.79,564.04c-2.67,0-4.8-.93-6.4-2.8-1.6-1.86-2.14-4.26-1.6-7.2l40-188c.53-2.66,2-5,4.4-7,2.4-2,4.93-3,7.6-3h39.2c2.66,0,4.73,1,6.2,3,1.46,2,1.93,4.34,1.4,7l-3.2,16c6.4-8,14.46-14.33,24.2-19,9.73-4.66,21.66-7,35.8-7h21.2c2.66,0,4.73.94,6.2,2.8,1.46,1.87,1.93,4.27,1.4,7.2l-7.6,34.4c-.54,2.94-1.94,5.34-4.2,7.2-2.27,1.87-4.74,2.8-7.4,2.8h-34.8c-12,0-21.94,3.27-29.8,9.8-7.87,6.54-13.14,15.8-15.8,27.8l-22.8,106c-.54,2.94-1.94,5.34-4.2,7.2-2.27,1.87-4.87,2.8-7.8,2.8h-42Z"/><path class="cls-1" d="m1445.79,568.04c-20.8,0-38.2-3.67-52.2-11s-23.94-17.8-29.8-31.4c-5.87-13.6-7.34-29.46-4.4-47.6.53-5.33,1.53-11.4,3-18.2,1.46-6.8,3-12.73,4.6-17.8,4.8-18.4,12.26-34.33,22.4-47.8,10.13-13.46,23.2-23.86,39.2-31.2,16-7.33,34.93-11,56.8-11,20.53,0,37.8,3.67,51.8,11,14,7.34,24.13,17.74,30.4,31.2,6.26,13.47,7.8,29.4,4.6,47.8-.8,5.07-1.94,11-3.4,17.8-1.47,6.8-2.87,12.87-4.2,18.2-4.8,18.14-12.14,34-22,47.6-9.87,13.6-22.8,24.07-38.8,31.4s-35.34,11-58,11Zm4.8-44c13.33,0,24.4-4.06,33.2-12.2,8.8-8.13,15.2-20.06,19.2-35.8,1.06-4,2.33-9.33,3.8-16,1.46-6.66,2.46-12,3-16,2.66-15.46,1.73-27.33-2.8-35.6-4.54-8.26-13.34-12.4-26.4-12.4s-24,4.14-32.8,12.4c-8.8,8.27-15.2,20.14-19.2,35.6-1.07,4-2.34,9.34-3.8,16-1.47,6.67-2.47,12-3,16-2.67,15.74-1.8,27.67,2.6,35.8,4.4,8.14,13.13,12.2,26.2,12.2Z"/><path class="cls-1" d="m1639.39,564.04c-3.74,0-6.4-.93-8-2.8-1.6-1.86-2.54-4.26-2.8-7.2l-18.4-186.8c-.27-2.93.6-5.53,2.6-7.8,2-2.26,4.73-3.4,8.2-3.4h33.6c3.46,0,5.93.8,7.4,2.4,1.46,1.6,2.33,3.47,2.6,5.6l10.8,123.6,64.4-122.8c1.06-1.86,2.66-3.8,4.8-5.8,2.13-2,5.06-3,8.8-3h23.6c3.73,0,6.33,1,7.8,3,1.46,2,2.33,3.94,2.6,5.8l13.2,122.8,62.8-123.6c.8-1.6,2.2-3.33,4.2-5.2,2-1.86,4.73-2.8,8.2-2.8h38c3.73,0,6,1.27,6.8,3.8.8,2.54.53,5.27-.8,8.2l-96.8,186c-1.34,2.94-3.2,5.34-5.6,7.2-2.4,1.87-5.47,2.8-9.2,2.8h-31.2c-3.74,0-6.47-.93-8.2-2.8-1.74-1.86-2.87-4.26-3.4-7.2l-16.4-118.4-63.6,118.4c-1.6,2.94-3.6,5.34-6,7.2-2.4,1.87-5.6,2.8-9.6,2.8h-30.4Z"/><path class="cls-1" d="m1989.39,568.04c-13.34,0-24.94-2.2-34.8-6.6-9.87-4.4-17.67-10.8-23.4-19.2-5.74-8.4-9.47-18.4-11.2-30-1.74-11.6-1.54-24.46.6-38.6,1.06-5.06,2-9.66,2.8-13.8.8-4.13,1.86-8.6,3.2-13.4,3.46-13.86,8.13-26.53,14-38,5.86-11.46,13.06-21.4,21.6-29.8,8.53-8.4,18.4-14.93,29.6-19.6,11.2-4.66,23.6-7,37.2-7,14.4,0,26.4,2.34,36,7,9.6,4.67,16.8,10.74,21.6,18.2l18.4-87.2c.53-2.93,1.93-5.33,4.2-7.2,2.26-1.86,4.73-2.8,7.4-2.8h41.2c2.93,0,5.13.94,6.6,2.8,1.46,1.87,1.93,4.27,1.4,7.2l-56,264c-.54,2.94-1.94,5.34-4.2,7.2-2.27,1.87-4.87,2.8-7.8,2.8h-38c-2.94,0-5.14-.93-6.6-2.8-1.47-1.86-1.94-4.26-1.4-7.2l2.8-13.6c-8,8-16.94,14.6-26.8,19.8-9.87,5.2-22.67,7.8-38.4,7.8Zm22.8-48c10.13,0,18.8-2.26,26-6.8,7.2-4.53,13.13-10.26,17.8-17.2,4.66-6.93,7.93-14.4,9.8-22.4,1.33-5.06,2.53-10.13,3.6-15.2,1.06-5.06,2-10,2.8-14.8,1.6-7.46,1.6-14.46,0-21-1.6-6.53-4.94-11.93-10-16.2-5.07-4.26-12.4-6.4-22-6.4s-17.47,2.2-24.4,6.6c-6.94,4.4-12.54,10.2-16.8,17.4-4.27,7.2-7.74,15.07-10.4,23.6-1.07,4-2.07,8.14-3,12.4-.94,4.27-1.67,8.4-2.2,12.4-1.07,8.54-1.2,16.4-.4,23.6s3.53,13,8.2,17.4c4.66,4.4,11.66,6.6,21,6.6Z"/><path class="cls-1" d="m2190.59,564.04c-2.67,0-4.8-.93-6.4-2.8-1.6-1.86-2.14-4.26-1.6-7.2l32.4-150.8h-31.6c-2.67,0-4.74-.93-6.2-2.8-1.47-1.86-1.94-4.26-1.4-7.2l5.6-27.2c.53-2.93,2-5.33,4.4-7.2,2.4-1.86,4.93-2.8,7.6-2.8h31.6l3.2-14.4c3.73-17.06,9.73-31.06,18-42,8.26-10.93,18.66-18.93,31.2-24,12.53-5.06,27.06-7.6,43.6-7.6h34.8c2.66,0,4.73.94,6.2,2.8,1.46,1.87,1.93,4.27,1.4,7.2l-6,27.2c-.54,2.94-1.94,5.34-4.2,7.2-2.27,1.87-4.87,2.8-7.8,2.8h-25.2c-9.87,0-17.47,2.4-22.8,7.2-5.34,4.8-8.94,11.87-10.8,21.2l-2.8,12.4h49.2c2.66,0,4.73.94,6.2,2.8,1.46,1.87,1.93,4.27,1.4,7.2l-6,27.2c-.54,2.94-1.94,5.34-4.2,7.2-2.27,1.87-4.74,2.8-7.4,2.8h-49.2l-32.4,150.8c-.54,2.94-1.87,5.34-4,7.2-2.14,1.87-4.67,2.8-7.6,2.8h-39.2Z"/><path class="cls-1" d="m2407.78,568.04c-16.54,0-30.27-3.54-41.2-10.6-10.94-7.06-18.4-17.33-22.4-30.8-4-13.46-3.87-29.8.4-49l23.6-111.6c.53-2.93,1.93-5.33,4.2-7.2,2.26-1.86,4.86-2.8,7.8-2.8h42.4c2.66,0,4.73.94,6.2,2.8,1.46,1.87,1.93,4.27,1.4,7.2l-23.2,109.2c-2.14,9.87-2.8,18.14-2,24.8.8,6.67,3.6,11.67,8.4,15,4.8,3.34,11.86,5,21.2,5,12.8,0,24-3.93,33.6-11.8,9.6-7.86,15.86-18.86,18.8-33l23.2-109.2c.53-2.93,2-5.33,4.4-7.2,2.4-1.86,4.93-2.8,7.6-2.8h42.4c2.93,0,5.06.94,6.4,2.8,1.33,1.87,1.73,4.27,1.2,7.2l-40,188c-.54,2.94-1.87,5.34-4,7.2-2.14,1.87-4.67,2.8-7.6,2.8h-39.2c-2.94,0-5.14-.93-6.6-2.8-1.47-1.86-1.94-4.26-1.4-7.2l3.2-15.6c-5.87,6.14-11.94,11.47-18.2,16-6.27,4.54-13.34,7.94-21.2,10.2-7.87,2.26-17.67,3.4-29.4,3.4Z"/><path class="cls-1" d="m2590.58,564.04c-2.67,0-4.8-.93-6.4-2.8-1.6-1.86-2.14-4.26-1.6-7.2l40-188c.53-2.93,2-5.33,4.4-7.2,2.4-1.86,4.93-2.8,7.6-2.8h39.2c2.93,0,5.06.94,6.4,2.8,1.33,1.87,1.73,4.27,1.2,7.2l-3.2,15.6c8.26-8.53,18.2-15.6,29.8-21.2,11.6-5.6,24.73-8.4,39.4-8.4,17.6,0,31.8,3.54,42.6,10.6,10.8,7.07,18.13,17.34,22,30.8,3.86,13.47,3.8,29.8-.2,49l-24,111.6c-.54,2.94-1.94,5.34-4.2,7.2-2.27,1.87-4.87,2.8-7.8,2.8h-42.4c-2.67,0-4.8-.93-6.4-2.8-1.6-1.86-2.14-4.26-1.6-7.2l23.2-109.2c3.2-14.93,2.86-26.13-1-33.6-3.87-7.46-12.74-11.2-26.6-11.2s-25.14,3.94-34.6,11.8c-9.47,7.87-15.67,18.87-18.6,33l-23.2,109.2c-.54,2.94-1.94,5.34-4.2,7.2-2.27,1.87-4.74,2.8-7.4,2.8h-42.4Z"/><path class="cls-1" d="m2913.38,568.04c-13.34,0-24.94-2.2-34.8-6.6-9.87-4.4-17.67-10.8-23.4-19.2-5.74-8.4-9.47-18.4-11.2-30-1.74-11.6-1.54-24.46.6-38.6,1.06-5.06,2-9.66,2.8-13.8.8-4.13,1.86-8.6,3.2-13.4,3.46-13.86,8.13-26.53,14-38,5.86-11.46,13.06-21.4,21.6-29.8,8.53-8.4,18.4-14.93,29.6-19.6,11.2-4.66,23.6-7,37.2-7,14.4,0,26.4,2.34,36,7,9.6,4.67,16.8,10.74,21.6,18.2l18.4-87.2c.53-2.93,1.93-5.33,4.2-7.2,2.26-1.86,4.73-2.8,7.4-2.8h41.2c2.93,0,5.13.94,6.6,2.8,1.46,1.87,1.93,4.27,1.4,7.2l-56,264c-.54,2.94-1.94,5.34-4.2,7.2-2.27,1.87-4.87,2.8-7.8,2.8h-38c-2.94,0-5.14-.93-6.6-2.8-1.47-1.86-1.94-4.26-1.4-7.2l2.8-13.6c-8,8-16.94,14.6-26.8,19.8-9.87,5.2-22.67,7.8-38.4,7.8Zm22.8-48c10.13,0,18.8-2.26,26-6.8,7.2-4.53,13.13-10.26,17.8-17.2,4.66-6.93,7.93-14.4,9.8-22.4,1.33-5.06,2.53-10.13,3.6-15.2,1.06-5.06,2-10,2.8-14.8,1.6-7.46,1.6-14.46,0-21-1.6-6.53-4.94-11.93-10-16.2-5.07-4.26-12.4-6.4-22-6.4s-17.47,2.2-24.4,6.6c-6.94,4.4-12.54,10.2-16.8,17.4-4.27,7.2-7.74,15.07-10.4,23.6-1.07,4-2.07,8.14-3,12.4-.94,4.27-1.67,8.4-2.2,12.4-1.07,8.54-1.2,16.4-.4,23.6s3.53,13,8.2,17.4c4.66,4.4,11.66,6.6,21,6.6Z"/><path class="cls-1" d="m3186.57,564.04c-2.67,0-4.8-.93-6.4-2.8-1.6-1.86-2.14-4.26-1.6-7.2l55.2-260c.53-2.93,2-5.33,4.4-7.2,2.4-1.86,4.93-2.8,7.6-2.8h104.4c16,0,30.4,1.87,43.2,5.6,12.8,3.74,23.4,9.4,31.8,17s14.2,17.07,17.4,28.4c3.2,11.34,3.2,24.47,0,39.4-6.4,30.4-19.67,52.87-39.8,67.4-20.14,14.54-46.87,21.8-80.2,21.8h-59.2l-19.2,90.4c-.54,2.94-1.94,5.34-4.2,7.2-2.27,1.87-4.87,2.8-7.8,2.8h-45.6Zm86.4-150h51.6c12.8,0,24.06-3.33,33.8-10,9.73-6.66,16.06-16.66,19-30,1.6-8,1.93-15,1-21-.94-6-4.07-10.66-9.4-14-5.34-3.33-13.74-5-25.2-5h-53.6l-17.2,80Z"/><path class="cls-1" d="m3518.97,568.04c-16.54,0-30.27-3.54-41.2-10.6-10.94-7.06-18.4-17.33-22.4-30.8-4-13.46-3.87-29.8.4-49l23.6-111.6c.53-2.93,1.93-5.33,4.2-7.2,2.26-1.86,4.86-2.8,7.8-2.8h42.4c2.66,0,4.73.94,6.2,2.8,1.46,1.87,1.93,4.27,1.4,7.2l-23.2,109.2c-2.14,9.87-2.8,18.14-2,24.8.8,6.67,3.6,11.67,8.4,15,4.8,3.34,11.86,5,21.2,5,12.8,0,24-3.93,33.6-11.8,9.6-7.86,15.86-18.86,18.8-33l23.2-109.2c.53-2.93,2-5.33,4.4-7.2,2.4-1.86,4.93-2.8,7.6-2.8h42.4c2.93,0,5.06.94,6.4,2.8,1.33,1.87,1.73,4.27,1.2,7.2l-40,188c-.54,2.94-1.87,5.34-4,7.2-2.14,1.87-4.67,2.8-7.6,2.8h-39.2c-2.94,0-5.14-.93-6.6-2.8-1.47-1.86-1.94-4.26-1.4-7.2l3.2-15.6c-5.87,6.14-11.94,11.47-18.2,16-6.27,4.54-13.34,7.94-21.2,10.2-7.87,2.26-17.67,3.4-29.4,3.4Z"/><path class="cls-1" d="m3701.77,564.04c-2.67,0-4.8-.93-6.4-2.8-1.6-1.86-2.14-4.26-1.6-7.2l40-188c.53-2.93,2-5.33,4.4-7.2,2.4-1.86,4.93-2.8,7.6-2.8h39.2c2.93,0,5.06.94,6.4,2.8,1.33,1.87,1.73,4.27,1.2,7.2l-3.2,15.6c8.26-8.53,18.2-15.6,29.8-21.2,11.6-5.6,24.73-8.4,39.4-8.4,17.6,0,31.8,3.54,42.6,10.6,10.8,7.07,18.13,17.34,22,30.8,3.86,13.47,3.8,29.8-.2,49l-24,111.6c-.54,2.94-1.94,5.34-4.2,7.2-2.27,1.87-4.87,2.8-7.8,2.8h-42.4c-2.67,0-4.8-.93-6.4-2.8-1.6-1.86-2.14-4.26-1.6-7.2l23.2-109.2c3.2-14.93,2.86-26.13-1-33.6-3.87-7.46-12.74-11.2-26.6-11.2s-25.14,3.94-34.6,11.8c-9.47,7.87-15.67,18.87-18.6,33l-23.2,109.2c-.54,2.94-1.94,5.34-4.2,7.2-2.27,1.87-4.74,2.8-7.4,2.8h-42.4Z"/><path class="cls-1" d="m4024.57,568.04c-13.34,0-24.94-2.2-34.8-6.6-9.87-4.4-17.67-10.8-23.4-19.2-5.74-8.4-9.47-18.4-11.2-30-1.74-11.6-1.54-24.46.6-38.6,1.06-5.06,2-9.66,2.8-13.8.8-4.13,1.86-8.6,3.2-13.4,3.46-13.86,8.13-26.53,14-38,5.86-11.46,13.06-21.4,21.6-29.8,8.53-8.4,18.4-14.93,29.6-19.6,11.2-4.66,23.6-7,37.2-7,14.4,0,26.4,2.34,36,7,9.6,4.67,16.8,10.74,21.6,18.2l18.4-87.2c.53-2.93,1.93-5.33,4.2-7.2,2.26-1.86,4.73-2.8,7.4-2.8h41.2c2.93,0,5.13.94,6.6,2.8,1.46,1.87,1.93,4.27,1.4,7.2l-56,264c-.54,2.94-1.94,5.34-4.2,7.2-2.27,1.87-4.87,2.8-7.8,2.8h-38c-2.94,0-5.14-.93-6.6-2.8-1.47-1.86-1.94-4.26-1.4-7.2l2.8-13.6c-8,8-16.94,14.6-26.8,19.8-9.87,5.2-22.67,7.8-38.4,7.8Zm22.8-48c10.13,0,18.8-2.26,26-6.8,7.2-4.53,13.13-10.26,17.8-17.2,4.66-6.93,7.93-14.4,9.8-22.4,1.33-5.06,2.53-10.13,3.6-15.2,1.06-5.06,2-10,2.8-14.8,1.6-7.46,1.6-14.46,0-21-1.6-6.53-4.94-11.93-10-16.2-5.07-4.26-12.4-6.4-22-6.4s-17.47,2.2-24.4,6.6c-6.94,4.4-12.54,10.2-16.8,17.4-4.27,7.2-7.74,15.07-10.4,23.6-1.07,4-2.07,8.14-3,12.4-.94,4.27-1.67,8.4-2.2,12.4-1.07,8.54-1.2,16.4-.4,23.6s3.53,13,8.2,17.4c4.66,4.4,11.66,6.6,21,6.6Z"/><path class="cls-1" d="m4203.36,564.04c-2.67,0-4.8-.93-6.4-2.8-1.6-1.86-2.14-4.26-1.6-7.2l40-188c.53-2.93,2-5.33,4.4-7.2,2.4-1.86,4.93-2.8,7.6-2.8h40c2.93,0,5.06.94,6.4,2.8,1.33,1.87,1.73,4.27,1.2,7.2l-40,188c-.54,2.94-1.87,5.34-4,7.2-2.14,1.87-4.67,2.8-7.6,2.8h-40Zm50-240c-2.94,0-5.14-.93-6.6-2.8-1.47-1.86-1.94-4.26-1.4-7.2l6.8-32c.53-2.93,1.93-5.4,4.2-7.4,2.26-2,4.86-3,7.8-3h42c2.93,0,5.13,1,6.6,3,1.46,2,1.93,4.47,1.4,7.4l-7.2,32c-.27,2.94-1.6,5.34-4,7.2-2.4,1.87-4.94,2.8-7.6,2.8h-42Z"/><path class="cls-1" d="m4405.76,564.04c-18.14,0-32.67-2.73-43.6-8.2-10.94-5.46-18.2-13.93-21.8-25.4-3.6-11.46-3.67-25.86-.2-43.2l18-84h-31.2c-2.94,0-5.14-.93-6.6-2.8-1.47-1.86-1.94-4.26-1.4-7.2l5.6-27.2c.53-2.93,2-5.33,4.4-7.2,2.4-1.86,4.93-2.8,7.6-2.8h31.6l14-66c.53-2.93,1.93-5.33,4.2-7.2,2.26-1.86,4.86-2.8,7.8-2.8h39.2c2.66,0,4.8.94,6.4,2.8,1.6,1.87,2.13,4.27,1.6,7.2l-14.4,66h50c2.93,0,5.06.94,6.4,2.8,1.33,1.87,1.73,4.27,1.2,7.2l-5.6,27.2c-.54,2.94-1.94,5.34-4.2,7.2-2.27,1.87-4.87,2.8-7.8,2.8h-50l-16.8,79.2c-1.34,6.67-2.07,12.47-2.2,17.4-.14,4.94,1.2,8.67,4,11.2,2.8,2.54,7.66,3.8,14.6,3.8h30.4c2.66,0,4.73.94,6.2,2.8,1.46,1.87,1.93,4.14,1.4,6.8l-6.4,29.6c-.54,2.94-1.87,5.34-4,7.2-2.14,1.87-4.67,2.8-7.6,2.8h-30.8Z"/><path class="cls-1" d="m4566.95,568.04c-16.54,0-30.34-1.94-41.4-5.8-11.07-3.86-19.67-8.6-25.8-14.2-6.14-5.6-10.34-11.26-12.6-17-2.27-5.73-3.14-10.6-2.6-14.6.53-2.93,1.93-5.33,4.2-7.2,2.26-1.86,4.6-2.8,7-2.8h38.4c1.06,0,1.93.14,2.6.4.66.27,1.4.94,2.2,2,2.93,2.4,5.93,5.14,9,8.2,3.06,3.07,6.86,5.67,11.4,7.8,4.53,2.14,10.4,3.2,17.6,3.2,8.8,0,16.66-1.8,23.6-5.4,6.93-3.6,11.06-8.73,12.4-15.4,1.06-4.8.53-8.8-1.6-12-2.14-3.2-6.8-6.13-14-8.8-7.2-2.66-18-5.6-32.4-8.8-13.6-3.2-24.87-7.46-33.8-12.8-8.94-5.33-15.14-12.06-18.6-20.2-3.47-8.13-4-17.93-1.6-29.4,2.4-10.4,7.8-20.4,16.2-30,8.4-9.6,19.73-17.53,34-23.8,14.26-6.26,31-9.4,50.2-9.4,14.66,0,27.2,1.8,37.6,5.4,10.4,3.6,18.73,8.14,25,13.6,6.26,5.47,10.66,11.07,13.2,16.8,2.53,5.74,3.4,10.74,2.6,15-.27,2.67-1.54,4.94-3.8,6.8-2.27,1.87-4.6,2.8-7,2.8h-35.2c-1.34,0-2.47-.2-3.4-.6-.94-.4-1.67-1-2.2-1.8-2.94-2.13-5.74-4.6-8.4-7.4-2.67-2.8-6.07-5.26-10.2-7.4-4.14-2.13-9.8-3.2-17-3.2-8.8,0-15.94,1.94-21.4,5.8-5.47,3.87-8.87,8.74-10.2,14.6-.8,3.74-.34,7.2,1.4,10.4,1.73,3.2,6,6.14,12.8,8.8,6.8,2.67,17.53,5.47,32.2,8.4,17.33,3.2,30.73,8,40.2,14.4,9.46,6.4,15.6,13.8,18.4,22.2,2.8,8.4,3.13,17.4,1,27-2.4,12.54-8.4,23.67-18,33.4-9.6,9.74-22.14,17.34-37.6,22.8-15.47,5.46-33.6,8.2-54.4,8.2Z"/></g></svg>